<?xml version="1.0" standalone="no"?>
<!DOCTYPE svg PUBLIC "-//W3C//DTD SVG 20010904//EN"
 "http://www.w3.org/TR/2001/REC-SVG-20010904/DTD/svg10.dtd">
<svg version="1.0" xmlns="http://www.w3.org/2000/svg"
 width="300.000000pt" height="300.000000pt" viewBox="0 0 300.000000 300.000000"
 preserveAspectRatio="xMidYMid meet">

<g transform="translate(0.000000,300.000000) scale(0.100000,-0.100000)"
fill="#FFFFFF" stroke="none">
<path d="M1417 2829 c-188 -42 -243 -280 -90 -394 l40 -30 5 -90 c5 -117 38
-193 114 -265 61 -58 112 -82 204 -98 72 -13 104 -32 138 -82 31 -47 31 -123
-3 -172 -42 -62 -94 -79 -304 -100 -318 -30 -348 -35 -421 -69 -80 -37 -149
-103 -182 -174 -18 -40 -23 -67 -23 -135 1 -102 29 -174 94 -239 53 -53 106
-79 197 -97 86 -16 99 -22 135 -61 41 -44 49 -66 49 -139 l0 -66 -46 -41 c-86
-76 -107 -176 -58 -275 42 -85 144 -136 238 -118 54 10 127 65 154 116 20 38
23 56 20 115 -4 80 -36 140 -93 175 -32 20 -33 22 -37 108 -5 111 -40 192
-108 256 -61 57 -107 80 -203 100 -84 17 -104 27 -138 70 -23 29 -36 99 -25
140 10 39 62 92 108 111 26 10 134 25 287 40 270 27 299 33 384 78 69 36 111
81 146 157 22 46 26 68 25 140 -1 101 -22 156 -86 226 -52 57 -117 91 -208
108 -129 24 -180 83 -179 207 l0 74 41 30 c109 79 120 245 21 336 -56 53 -126
73 -196 58z"/>
<path d="M907 2193 c-9 -15 12 -140 32 -194 28 -75 64 -128 156 -232 l78 -87
66 6 c36 4 85 10 109 13 l43 6 -124 137 c-133 146 -163 196 -180 296 l-11 62
-82 0 c-46 0 -85 -3 -87 -7z"/>
<path d="M1602 1320 c-40 -5 -75 -10 -78 -13 -2 -2 50 -64 116 -137 131 -146
168 -207 177 -294 l6 -56 88 0 89 0 0 31 c0 59 -31 165 -68 232 -20 37 -73
108 -117 157 -89 99 -74 94 -213 80z"/>
</g>
</svg>
