<?xml version="1.0" standalone="no"?>
<svg xmlns:xlink="http://www.w3.org/1999/xlink" id="wave" style="transform:rotate(180deg); transition: 0.3s" viewBox="0 0 1440 490" version="1.1" xmlns="http://www.w3.org/2000/svg"><defs><linearGradient id="sw-gradient-0" x1="0" x2="0" y1="1" y2="0"><stop stop-color="rgba(18, 18, 18, 1)" offset="0%"/><stop stop-color="rgba(12, 175, 255, 1)" offset="100%"/></linearGradient></defs><path style="transform:translate(0, 0px); opacity:1" fill="url(#sw-gradient-0)" d="M0,0L40,65.3C80,131,160,261,240,269.5C320,278,400,163,480,155.2C560,147,640,245,720,253.2C800,261,880,180,960,138.8C1040,98,1120,98,1200,155.2C1280,212,1360,327,1440,367.5C1520,408,1600,376,1680,375.7C1760,376,1840,408,1920,424.7C2000,441,2080,441,2160,432.8C2240,425,2320,408,2400,334.8C2480,261,2560,131,2640,130.7C2720,131,2800,261,2880,326.7C2960,392,3040,392,3120,343C3200,294,3280,196,3360,155.2C3440,114,3520,131,3600,179.7C3680,229,3760,310,3840,326.7C3920,343,4000,294,4080,253.2C4160,212,4240,180,4320,155.2C4400,131,4480,114,4560,147C4640,180,4720,261,4800,277.7C4880,294,4960,245,5040,196C5120,147,5200,98,5280,98C5360,98,5440,147,5520,155.2C5600,163,5680,131,5720,114.3L5760,98L5760,490L5720,490C5680,490,5600,490,5520,490C5440,490,5360,490,5280,490C5200,490,5120,490,5040,490C4960,490,4880,490,4800,490C4720,490,4640,490,4560,490C4480,490,4400,490,4320,490C4240,490,4160,490,4080,490C4000,490,3920,490,3840,490C3760,490,3680,490,3600,490C3520,490,3440,490,3360,490C3280,490,3200,490,3120,490C3040,490,2960,490,2880,490C2800,490,2720,490,2640,490C2560,490,2480,490,2400,490C2320,490,2240,490,2160,490C2080,490,2000,490,1920,490C1840,490,1760,490,1680,490C1600,490,1520,490,1440,490C1360,490,1280,490,1200,490C1120,490,1040,490,960,490C880,490,800,490,720,490C640,490,560,490,480,490C400,490,320,490,240,490C160,490,80,490,40,490L0,490Z"/></svg>